<?xml version="1.0" standalone="no"?>
<!DOCTYPE svg PUBLIC "-//W3C//DTD SVG 20010904//EN"
 "http://www.w3.org/TR/2001/REC-SVG-20010904/DTD/svg10.dtd">
<svg version="1.0" xmlns="http://www.w3.org/2000/svg"
 width="597.000000pt" height="361.000000pt" viewBox="0 0 597.000000 361.000000"
 preserveAspectRatio="xMidYMid meet">

<g transform="translate(0.000000,361.000000) scale(0.100000,-0.100000)"
fill="#fff" stroke="none">
<path d="M3242 2823 c-16 -6 -42 -56 -42 -82 0 -30 16 -34 39 -10 36 39 39
105 3 92z"/>
<path d="M3136 2804 c-27 -26 -38 -55 -32 -80 8 -32 19 -30 50 7 44 52 28 119
-18 73z"/>
<path d="M3311 2794 c-22 -28 -29 -84 -11 -84 15 0 50 61 50 88 0 29 -14 28
-39 -4z"/>
<path d="M3037 2782 c-32 -35 -43 -102 -17 -102 18 0 51 37 59 65 14 53 -9 74
-42 37z"/>
<path d="M3380 2758 c-22 -36 -26 -68 -10 -68 14 0 50 60 50 83 0 27 -18 20
-40 -15z"/>
<path d="M2930 2750 c-23 -23 -25 -80 -3 -87 21 -7 54 40 51 71 -4 37 -21 43
-48 16z"/>
<path d="M3447 2723 c-19 -21 -33 -73 -20 -73 9 0 53 70 53 84 0 12 -17 6 -33
-11z"/>
<path d="M2820 2711 c-5 -11 -10 -31 -10 -45 0 -35 42 -37 58 -2 23 50 -22 94
-48 47z"/>
<path d="M2721 2686 c-19 -23 -10 -71 14 -71 26 0 44 47 25 69 -16 20 -24 20
-39 2z"/>
<path d="M2614 2656 c-11 -29 1 -61 24 -64 18 -3 22 1 22 25 0 43 -34 71 -46
39z"/>
<path d="M3481 2644 c-34 -43 -26 -65 9 -26 17 18 30 37 30 42 0 18 -18 10
-39 -16z"/>
<path d="M2510 2617 c0 -25 17 -47 37 -47 16 0 17 42 1 58 -19 19 -38 14 -38
-11z"/>
<path d="M2220 2619 c0 -9 9 -27 20 -40 15 -19 19 -20 20 -8 0 9 -9 27 -20 40
-15 19 -19 20 -20 8z"/>
<path d="M2310 2618 c0 -9 11 -30 25 -45 19 -22 24 -24 25 -11 0 9 -11 30 -25
45 -19 22 -24 24 -25 11z"/>
<path d="M2410 2614 c0 -24 19 -54 35 -54 19 0 19 20 -1 48 -18 26 -34 29 -34
6z"/>
<path d="M3067 2602 c-26 -28 -27 -92 -2 -92 21 0 47 45 43 76 -4 34 -19 40
-41 16z"/>
<path d="M3140 2600 c-14 -26 -9 -72 8 -78 15 -5 44 61 36 82 -9 22 -31 20
-44 -4z"/>
<path d="M3220 2600 c-13 -24 -10 -75 5 -75 12 0 34 65 28 82 -7 19 -21 16
-33 -7z"/>
<path d="M3290 2591 c-12 -24 -13 -71 -1 -71 9 0 31 53 31 76 0 20 -18 17 -30
-5z"/>
<path d="M2970 2581 c-15 -30 -12 -71 6 -78 23 -9 44 23 44 64 0 26 -4 33 -20
33 -10 0 -24 -9 -30 -19z"/>
<path d="M3353 2571 c-7 -12 -13 -35 -12 -53 l1 -33 14 34 c8 18 14 42 12 53
-3 18 -3 18 -15 -1z"/>
<path d="M2881 2561 c-15 -28 -14 -56 4 -71 24 -20 47 6 43 49 -3 41 -30 54
-47 22z"/>
<path d="M2791 2546 c-20 -24 -10 -70 16 -74 17 -3 24 3 29 24 11 44 -21 79
-45 50z"/>
<path d="M3401 2536 c-7 -8 -11 -27 -9 -43 3 -26 4 -24 14 15 13 46 12 49 -5
28z"/>
<path d="M2687 2510 c-7 -27 27 -70 43 -54 6 6 10 24 8 40 -4 36 -42 47 -51
14z"/>
<path d="M2597 2514 c-13 -14 -7 -41 13 -59 16 -15 23 -16 33 -6 9 9 8 17 -3
38 -16 28 -32 38 -43 27z"/>
<path d="M2220 2499 c0 -9 9 -27 20 -40 26 -32 27 -3 0 31 -15 19 -20 21 -20
9z"/>
<path d="M2500 2486 c0 -24 23 -56 41 -56 14 0 11 33 -7 58 -20 29 -34 28 -34
-2z"/>
<path d="M2315 2478 c4 -13 13 -30 21 -38 12 -12 14 -12 14 4 0 23 -18 56 -31
56 -6 0 -8 -9 -4 -22z"/>
<path d="M2405 2490 c-8 -12 21 -60 35 -60 13 0 13 26 0 51 -12 21 -25 25 -35
9z"/>
<path d="M3030 2411 c-15 -28 -12 -57 6 -76 33 -32 59 28 34 76 -6 10 -15 19
-20 19 -5 0 -14 -9 -20 -19z"/>
<path d="M3104 2404 c-8 -30 11 -77 29 -72 26 9 19 98 -8 98 -8 0 -18 -12 -21
-26z"/>
<path d="M3182 2389 c2 -24 9 -44 16 -47 10 -3 12 7 10 39 -2 24 -9 44 -16 47
-10 3 -12 -7 -10 -39z"/>
<path d="M3248 2413 c-2 -33 3 -68 13 -77 5 -6 9 8 9 36 0 45 -18 79 -22 41z"/>
<path d="M2952 2408 c-17 -17 -15 -63 3 -78 35 -29 60 23 35 71 -12 22 -21 24
-38 7z"/>
<path d="M3308 2409 c-7 -19 1 -67 13 -75 11 -6 11 43 0 70 -6 16 -9 17 -13 5z"/>
<path d="M2858 2385 c-9 -19 -8 -29 6 -50 21 -31 33 -32 48 0 9 19 8 29 -6 50
-21 31 -33 32 -48 0z"/>
<path d="M3363 2365 c0 -27 2 -38 4 -22 2 15 2 37 0 50 -2 12 -4 0 -4 -28z"/>
<path d="M2777 2393 c-13 -12 -7 -60 8 -73 36 -30 59 15 29 58 -16 23 -26 27
-37 15z"/>
<path d="M2220 2379 c0 -9 9 -27 20 -40 26 -32 27 -3 0 31 -15 19 -20 21 -20
9z"/>
<path d="M2687 2383 c-14 -13 -6 -50 14 -69 17 -16 22 -16 29 -4 13 21 12 32
-6 58 -16 23 -26 27 -37 15z"/>
<path d="M2310 2366 c0 -8 9 -24 20 -37 17 -21 19 -22 20 -6 0 23 -18 57 -30
57 -6 0 -10 -6 -10 -14z"/>
<path d="M2400 2366 c0 -8 11 -28 25 -43 22 -25 24 -26 25 -8 0 23 -26 65 -41
65 -5 0 -9 -6 -9 -14z"/>
<path d="M2494 2369 c-7 -12 25 -60 46 -67 10 -4 11 2 6 24 -12 47 -37 67 -52
43z"/>
<path d="M2590 2357 c0 -22 27 -57 43 -57 11 0 8 39 -3 61 -15 27 -40 24 -40
-4z"/>
<path d="M2220 2253 c0 -21 39 -74 40 -55 0 15 -28 72 -35 72 -3 0 -5 -8 -5
-17z"/>
<path d="M3043 2249 c-18 -18 -16 -50 3 -77 23 -34 44 -28 44 12 0 43 -29 83
-47 65z"/>
<path d="M3110 2232 c0 -39 34 -82 51 -65 9 10 9 20 -2 50 -19 48 -49 57 -49
15z"/>
<path d="M3190 2226 c9 -40 18 -56 31 -56 13 0 11 34 -3 65 -17 38 -38 33 -28
-9z"/>
<path d="M3250 2249 c0 -19 32 -79 42 -79 9 0 6 18 -13 68 -9 23 -29 31 -29
11z"/>
<path d="M3310 2250 c0 -6 7 -25 17 -43 20 -39 30 -19 13 24 -12 28 -30 40
-30 19z"/>
<path d="M3370 2244 c0 -12 9 -32 20 -45 25 -30 25 -14 0 31 -16 28 -19 31
-20 14z"/>
<path d="M2315 2228 c8 -25 32 -54 39 -47 2 2 -2 19 -9 37 -16 37 -40 45 -30
10z"/>
<path d="M2957 2243 c-15 -14 -6 -64 15 -85 20 -20 22 -20 35 -3 14 21 9 51
-15 78 -16 18 -25 21 -35 10z"/>
<path d="M2400 2233 c0 -5 9 -23 20 -41 20 -33 44 -36 33 -4 -12 34 -53 68
-53 45z"/>
<path d="M2500 2217 c0 -25 26 -67 41 -67 17 0 9 46 -11 68 -26 28 -30 28 -30
-1z"/>
<path d="M2865 2219 c-8 -24 23 -74 46 -74 20 0 23 42 5 71 -20 30 -42 31 -51
3z"/>
<path d="M2594 2216 c-7 -19 11 -53 36 -66 17 -9 20 -8 20 12 0 26 -25 68 -41
68 -5 0 -12 -6 -15 -14z"/>
<path d="M2687 2216 c-11 -27 41 -92 59 -74 10 10 -4 54 -22 72 -19 20 -30 20
-37 2z"/>
<path d="M2780 2202 c0 -29 26 -62 48 -62 17 0 15 42 -4 68 -22 31 -44 28 -44
-6z"/>
<path d="M2220 2135 c0 -9 8 -30 17 -48 13 -24 18 -28 21 -15 3 16 -23 78 -33
78 -3 0 -5 -7 -5 -15z"/>
<path d="M2310 2109 c0 -15 33 -69 42 -69 12 0 10 18 -7 50 -15 30 -35 40 -35
19z"/>
<path d="M3360 2112 c0 -7 16 -29 35 -50 22 -24 35 -31 35 -21 0 8 -16 30 -35
49 -19 19 -35 28 -35 22z"/>
<path d="M3430 2112 c0 -12 48 -52 62 -52 18 0 3 21 -30 41 -17 12 -32 16 -32
11z"/>
<path d="M3297 2093 c10 -28 43 -73 54 -73 17 0 9 28 -17 59 -28 34 -47 41
-37 14z"/>
<path d="M2410 2083 c0 -12 11 -35 25 -50 23 -27 24 -27 25 -6 0 12 -11 35
-25 50 -23 27 -24 27 -25 6z"/>
<path d="M3150 2080 c0 -43 49 -104 68 -86 14 15 -36 106 -59 106 -5 0 -9 -9
-9 -20z"/>
<path d="M3227 2076 c6 -28 49 -73 60 -62 10 10 -31 80 -50 84 -10 2 -13 -4
-10 -22z"/>
<path d="M3074 2075 c-13 -33 26 -105 56 -105 13 0 13 56 0 80 -16 30 -49 45
-56 25z"/>
<path d="M2510 2061 c0 -20 36 -71 51 -71 16 0 10 31 -12 61 -23 33 -39 37
-39 10z"/>
<path d="M2989 2058 c-4 -45 28 -98 58 -98 18 0 17 44 -2 80 -16 30 -54 42
-56 18z"/>
<path d="M2610 2041 c0 -24 37 -71 56 -71 19 0 18 19 -6 58 -22 35 -50 43 -50
13z"/>
<path d="M2710 2036 c0 -28 35 -76 56 -76 23 0 16 49 -11 75 -30 31 -45 32
-45 1z"/>
<path d="M2809 2048 c-3 -34 4 -55 28 -76 30 -28 49 -17 39 23 -11 43 -64 85
-67 53z"/>
<path d="M2900 2032 c0 -33 35 -75 58 -70 35 7 -1 98 -38 98 -15 0 -20 -7 -20
-28z"/>
<path d="M2584 1701 c-62 -28 -89 -73 -89 -146 0 -73 27 -118 89 -146 51 -23
88 -24 129 -3 62 32 67 41 67 121 l0 73 -65 0 c-63 0 -65 -1 -65 -25 0 -22 4
-25 40 -25 39 0 40 -1 40 -34 0 -69 -92 -91 -152 -37 -28 25 -33 36 -33 76 0
40 5 51 33 76 37 33 97 39 136 14 21 -14 24 -13 40 3 20 22 11 32 -47 57 -47
20 -73 19 -123 -4z"/>
<path d="M3980 1698 c-67 -34 -93 -79 -88 -151 3 -36 12 -67 24 -85 24 -32 98
-72 134 -72 37 0 110 40 134 73 16 22 21 44 21 90 0 75 -27 120 -89 148 -54
24 -82 24 -136 -3z m137 -60 c53 -59 54 -119 2 -162 -62 -52 -160 -19 -175 59
-8 42 0 66 33 99 35 35 109 37 140 4z"/>
<path d="M946 1561 c-31 -81 -56 -151 -56 -155 0 -3 12 -6 26 -6 21 0 29 8 41
40 l16 40 57 0 57 0 13 -40 c11 -35 17 -40 43 -40 19 0 28 4 24 13 -107 286
-111 297 -138 297 -24 0 -30 -9 -83 -149z m97 32 c2 -10 8 -26 12 -35 6 -15 2
-18 -24 -18 -17 0 -31 2 -31 4 0 1 5 17 11 35 12 35 24 40 32 14z"/>
<path d="M1240 1555 l0 -155 25 0 25 0 0 155 0 155 -25 0 -25 0 0 -155z"/>
<path d="M1500 1555 l0 -155 25 0 25 0 0 155 0 155 -25 0 -25 0 0 -155z"/>
<path d="M1650 1555 l0 -155 25 0 c25 0 25 0 25 94 0 52 3 97 8 100 4 2 36
-40 72 -95 56 -85 69 -99 93 -99 l27 0 0 155 0 155 -25 0 c-24 0 -24 -1 -27
-102 l-3 -103 -70 102 c-60 88 -74 103 -97 103 l-28 0 0 -155z"/>
<path d="M1970 1686 c0 -21 5 -25 38 -28 l37 -3 3 -127 3 -128 29 0 30 0 0
130 0 130 35 0 c31 0 35 3 35 25 l0 25 -105 0 c-105 0 -105 0 -105 -24z"/>
<path d="M2240 1555 l0 -155 100 0 100 0 0 25 c0 24 -2 25 -70 25 l-70 0 0 50
0 50 65 0 c63 0 65 1 65 25 0 24 -2 25 -65 25 l-65 0 0 30 0 30 75 0 c73 0 75
1 75 25 l0 25 -105 0 -105 0 0 -155z"/>
<path d="M2850 1555 l0 -155 30 0 30 0 0 75 c0 98 13 98 82 0 48 -67 56 -75
87 -75 25 0 31 3 24 13 -6 6 -31 41 -57 76 l-46 63 20 25 c27 35 26 78 -5 108
-21 22 -33 25 -95 25 l-70 0 0 -155z m134 82 c14 -22 -5 -37 -46 -37 -25 0
-28 4 -28 31 0 28 2 30 31 27 18 -2 37 -11 43 -21z"/>
<path d="M3256 1701 c-3 -4 -19 -44 -35 -87 -16 -44 -41 -109 -55 -146 l-26
-68 29 0 c23 0 30 6 44 40 15 40 16 40 70 40 55 0 55 0 71 -40 13 -34 20 -40
45 -40 l30 0 -23 58 c-13 31 -40 101 -61 155 -32 84 -40 97 -60 97 -13 0 -26
-4 -29 -9z m52 -157 c-4 -3 -17 -4 -30 -2 -24 3 -24 4 -10 38 l14 35 16 -32
c9 -18 13 -35 10 -39z"/>
<path d="M3464 1695 c-9 -23 5 -35 42 -35 l34 0 0 -130 0 -130 30 0 30 0 0
130 0 130 35 0 c31 0 35 3 35 25 l0 25 -100 0 c-79 0 -102 -3 -106 -15z"/>
<path d="M3760 1555 l0 -155 25 0 25 0 0 155 0 155 -25 0 -25 0 0 -155z"/>
<path d="M4280 1556 l0 -156 25 0 c24 0 24 1 27 103 l3 102 69 -102 c61 -90
73 -103 98 -103 l28 0 0 155 0 155 -25 0 -25 0 0 -100 c0 -55 -3 -100 -7 -100
-5 1 -37 45 -73 98 -53 78 -71 98 -93 100 l-27 3 0 -155z"/>
<path d="M4653 1691 c-20 -13 -34 -31 -38 -51 -11 -49 18 -81 96 -106 42 -13
65 -26 67 -38 9 -45 -58 -61 -115 -27 -31 19 -31 19 -49 0 -16 -17 -16 -22 -4
-30 70 -47 147 -53 192 -16 69 55 35 131 -72 160 -54 15 -61 20 -58 40 5 33
52 46 91 24 29 -17 31 -17 50 2 20 19 19 19 -21 40 -51 26 -98 27 -139 2z"/>
<path d="M1390 1163 l0 -116 67 6 c48 4 70 10 80 23 19 26 16 61 -6 76 -17 12
-17 16 -5 33 17 23 18 59 2 72 -7 6 -41 13 -75 16 l-63 5 0 -115z m115 84 c13
-10 16 -21 12 -39 -6 -22 -13 -26 -53 -30 -25 -2 -47 -1 -50 1 -2 2 -4 22 -4
43 0 37 1 38 38 38 21 0 46 -6 57 -13z m-1 -97 c18 -7 26 -17 26 -34 0 -31
-26 -46 -79 -46 l-41 0 0 45 c0 45 0 45 34 45 19 0 46 -4 60 -10z"/>
<path d="M1673 1265 c-17 -7 -39 -27 -47 -44 -54 -104 55 -213 154 -154 34 20
50 52 50 101 0 47 -22 80 -66 98 -41 17 -50 17 -91 -1z m106 -31 c63 -53 27
-164 -54 -164 -70 0 -114 75 -81 138 30 58 85 68 135 26z"/>
<path d="M1954 1266 c-30 -13 -64 -66 -64 -100 0 -35 30 -85 59 -100 77 -40
164 9 164 93 0 48 -22 87 -59 104 -41 20 -59 21 -100 3z m90 -17 c14 -7 32
-27 41 -46 30 -63 -12 -133 -80 -133 -64 0 -106 61 -85 124 19 59 68 80 124
55z"/>
<path d="M2212 1268 c-26 -13 -39 -54 -25 -77 5 -9 32 -23 59 -32 37 -12 50
-21 52 -38 7 -49 -50 -69 -89 -30 -11 11 -25 19 -32 16 -7 -2 -1 -14 15 -30
47 -47 128 -27 128 33 0 35 -20 56 -62 65 -41 9 -58 22 -58 46 0 19 28 39 54
39 9 0 25 -9 37 -21 23 -23 33 -21 23 5 -7 17 -44 37 -67 35 -7 0 -22 -5 -35
-11z"/>
<path d="M2375 1271 c-4 -7 8 -11 34 -11 l41 0 0 -105 c0 -63 4 -105 10 -105
6 0 10 42 10 105 l0 105 35 0 c19 0 35 4 35 8 0 12 -157 15 -165 3z"/>
<path d="M2717 1274 c-4 -4 -7 -57 -7 -117 l0 -110 65 5 c36 3 72 11 80 18 22
18 19 66 -5 83 -18 13 -19 16 -5 27 18 15 20 64 3 78 -16 12 -121 25 -131 16z
m107 -27 c11 -8 17 -23 14 -37 -2 -20 -11 -26 -47 -32 -24 -4 -48 -5 -52 -2
-5 3 -9 23 -9 45 0 39 0 39 38 39 21 0 46 -6 56 -13z m7 -97 c25 -14 25 -56 0
-70 -11 -5 -38 -10 -60 -10 l-41 0 0 45 0 45 41 0 c22 0 49 -5 60 -10z"/>
<path d="M2946 1267 c-5 -10 -6 -53 -3 -95 5 -68 9 -80 33 -101 22 -18 35 -22
63 -17 58 9 71 34 71 137 0 53 -4 89 -10 89 -6 0 -10 -36 -10 -88 0 -98 -12
-122 -63 -122 -50 0 -65 31 -70 145 -1 49 -5 64 -11 52z"/>
<path d="M3220 1267 c-48 -25 -30 -107 24 -107 29 0 66 -27 66 -49 0 -43 -59
-55 -97 -19 -32 30 -41 15 -10 -16 47 -47 127 -23 127 37 0 31 -25 52 -77 66
-35 10 -43 16 -43 34 0 49 54 63 90 25 11 -12 23 -18 27 -14 10 10 -28 44 -57
50 -14 4 -36 0 -50 -7z"/>
<path d="M3410 1166 c0 -71 4 -116 10 -116 6 0 10 43 10 109 0 63 -4 112 -10
116 -6 4 -10 -35 -10 -109z"/>
<path d="M3522 1163 l2 -118 5 100 6 100 41 -55 c22 -30 53 -74 69 -97 46 -70
55 -59 55 66 0 139 -18 158 -22 24 l-3 -98 -69 98 c-38 53 -73 97 -78 97 -4 0
-7 -53 -6 -117z"/>
<path d="M3790 1165 l0 -115 70 0 c40 0 70 4 70 10 0 6 -27 10 -60 10 l-60 0
0 45 0 45 50 0 c30 0 50 4 50 11 0 8 -17 10 -50 7 l-50 -5 0 43 0 44 55 0 c77
0 69 14 -10 17 l-65 3 0 -115z"/>
<path d="M4016 1259 c-28 -22 -34 -60 -12 -78 8 -6 33 -17 57 -24 33 -10 45
-18 47 -35 7 -50 -50 -70 -88 -32 -24 24 -30 25 -30 6 0 -20 39 -46 70 -46 45
0 72 27 68 68 -3 34 -7 38 -48 52 -25 8 -51 19 -57 23 -19 12 -15 45 6 57 29
15 49 12 72 -11 23 -23 33 -21 23 5 -7 17 -43 36 -68 36 -7 0 -25 -9 -40 -21z"/>
<path d="M4232 1268 c-26 -13 -39 -54 -25 -77 5 -9 32 -23 59 -32 37 -12 50
-21 52 -38 8 -50 -45 -67 -92 -30 -36 28 -45 17 -13 -15 47 -46 127 -25 127
34 0 35 -20 56 -62 65 -41 9 -58 22 -58 46 0 19 28 39 54 39 9 0 25 -9 37 -21
23 -23 33 -21 23 5 -7 17 -44 37 -67 35 -7 0 -22 -5 -35 -11z"/>
</g>
</svg>
