<svg xmlns="http://www.w3.org/2000/svg" version="1.1" xmlns:xlink="http://www.w3.org/1999/xlink"
    xmlns:svgjs="http://svgjs.dev/svgjs" width="2000" height="757" viewBox="0 0 2000 757">
    <g transform="matrix(1,0,0,1,-1.2121212121212466,0.10106049922728744)">
        <svg viewBox="0 0 396 150" data-background-color="#0069dc"
            preserveAspectRatio="xMidYMid meet" height="757" width="2000"
            xmlns="http://www.w3.org/2000/svg" xmlns:xlink="http://www.w3.org/1999/xlink">
            <g id="tight-bounds" transform="matrix(1,0,0,1,0.2400000000000091,-0.0200251979974837)">
                <svg viewBox="0 0 395.52 150.04005039599497" height="150.04005039599497"
                    width="395.52">
                    <g>
                        <svg viewBox="0 0 395.52 150.04005039599497" height="150.04005039599497"
                            width="395.52">
                            <g transform="matrix(1,0,0,1,0,90.247132296392)">
                                <svg viewBox="0 0 395.52 59.792918099602986"
                                    height="59.792918099602986" width="395.52">
                                    <g id="textblocktransform">
                                        <svg viewBox="0 0 395.52 59.792918099602986"
                                            height="59.792918099602986" width="395.52"
                                            id="textblock">
                                            <g>
                                                <svg viewBox="0 0 395.52 32.24944290288153"
                                                    height="32.24944290288153" width="395.52">
                                                    <g transform="matrix(1,0,0,1,0,0)">
                                                        <svg width="395.52"
                                                            viewBox="4 -37.5 468.45 38.2"
                                                            height="32.24944290288153"
                                                            data-palette-color="#f7f2ec">
                                                            <path
                                                                d="M8.75 0L4 0 4-35 8.75-35 8.75 0ZM19.85 0L15.35 0 15.35-24.5 18.85-24.5 19.75-19.8 18-20.55Q20.47-23.3 22.84-24.15 25.2-25 27.45-25L27.45-25Q32.82-25 35.14-21.9 37.45-18.8 37.45-13.5L37.45-13.5 37.45 0 32.95 0 32.95-13.5Q32.95-17.4 31.5-19.2 30.05-21 26.55-21L26.55-21Q24.07-21 22.01-19.91 19.95-18.82 19.3-16.45L19.3-16.45 19.85-19.2 19.85 0ZM47.8 0L43.3 0 43.3-24.5 46.8-24.5 47.7-19.8 45.95-20.55Q48.42-23.3 50.78-24.15 53.15-25 55.4-25L55.4-25Q60.77-25 63.08-21.9 65.4-18.8 65.4-13.5L65.4-13.5 65.4 0 60.9 0 60.9-13.5Q60.9-17.4 59.45-19.2 58-21 54.5-21L54.5-21Q52.02-21 49.96-19.91 47.9-18.82 47.25-16.45L47.25-16.45 47.8-19.2 47.8 0ZM81.94 0.5L81.94 0.5Q78.09 0.5 75.38-1.21 72.67-2.93 71.23-5.81 69.79-8.7 69.79-12.25L69.79-12.25Q69.79-15.8 71.23-18.69 72.67-21.58 75.38-23.29 78.09-25 81.94-25L81.94-25Q85.77-25 88.49-23.29 91.22-21.58 92.66-18.69 94.09-15.8 94.09-12.25L94.09-12.25Q94.09-8.7 92.66-5.81 91.22-2.93 88.49-1.21 85.77 0.5 81.94 0.5ZM81.94-3.5L81.94-3.5Q85.59-3.5 87.54-5.81 89.49-8.13 89.49-12.25L89.49-12.25Q89.49-16.38 87.54-18.69 85.59-21 81.94-21L81.94-21Q78.32-21 76.36-18.69 74.39-16.38 74.39-12.25L74.39-12.25Q74.39-8.13 76.36-5.81 78.32-3.5 81.94-3.5ZM108.64 0L103.59 0 93.69-35 98.69-35 106.09-6.15 114.64-34.3 119.64-34.3 128.19-6.15 135.59-35 140.59-35 130.69 0 125.64 0 117.14-28.15 108.64 0ZM147.54 0.5L147.54 0.5Q145.26 0.5 143.56-0.43 141.86-1.35 140.93-2.95 139.99-4.55 139.99-6.6L139.99-6.6Q139.99-8.68 140.9-10.16 141.81-11.65 143.35-12.64 144.89-13.63 146.79-14.21 148.69-14.8 150.73-15.06 152.76-15.33 154.64-15.35L154.64-15.35Q154.64-18.85 153.26-19.93 151.89-21 149.29-21L149.29-21Q147.91-21 146.35-20.58 144.79-20.15 142.84-18.8L142.84-18.8 142.19-22.45Q143.66-23.58 145.86-24.29 148.06-25 150.49-25L150.49-25Q153.59-25 155.49-23.91 157.39-22.83 158.26-20.25 159.14-17.68 159.14-13.25L159.14-13.25 159.14-8.25Q159.14-6.5 159.3-5.36 159.46-4.23 160.05-3.66 160.64-3.1 161.94-3.1L161.94-3.1 162.39-3.1 161.69 0.5 161.34 0.5Q159.16 0.5 157.98 0.08 156.79-0.35 156.16-1.15 155.54-1.95 155.04-3.1L155.04-3.1Q153.66-1.5 151.79-0.5 149.91 0.5 147.54 0.5ZM148.39-3.1L148.39-3.1Q150.19-3.1 151.88-4 153.56-4.9 154.64-6.4L154.64-6.4 154.64-12.25Q151.06-12.13 148.85-11.55 146.64-10.98 145.61-9.83 144.59-8.68 144.59-6.85L144.59-6.85Q144.59-4.88 145.65-3.99 146.71-3.1 148.39-3.1ZM176.74 0L171.69 0 162.34-24.5 167.34-24.5 174.19-4.95 180.99-24.5 186.04-24.5 176.74 0ZM200.83 0.5L200.83 0.5Q196.51 0.5 193.56-1.28 190.61-3.05 189.1-5.99 187.58-8.93 187.58-12.45L187.58-12.45Q187.58-15.88 189-18.73 190.41-21.58 193.1-23.29 195.78-25 199.58-25L199.58-25Q202.63-25 205.02-23.79 207.41-22.58 208.77-20.26 210.13-17.95 210.13-14.65L210.13-14.65Q210.13-14.13 210.1-13.51 210.06-12.9 209.93-12.25L209.93-12.25 192.18-12.25Q192.51-8.85 193.81-6.95 195.11-5.05 197.08-4.28 199.06-3.5 201.38-3.5L201.38-3.5Q203.08-3.5 204.93-3.85 206.78-4.2 208.43-4.95L208.43-4.95 209.03-1.4Q207.61-0.78 205.56-0.14 203.51 0.5 200.83 0.5ZM192.58-15.35L192.58-15.35 205.48-15.35Q205.48-17.07 204.83-18.35 204.18-19.63 202.86-20.31 201.53-21 199.48-21L199.48-21Q196.48-21 194.87-19.51 193.26-18.03 192.58-15.35ZM245.78-13.75L245.78-9.45 230.78-9.45 230.78-13.75 245.78-13.75ZM248.33 0L237.58-30.35 238.98-30.35 228.23 0 223.23 0 235.78-35 240.78-35 253.33 0 248.33 0ZM261.23 0L256.73 0 256.73-24.5 261.23-24.5 261.23 0ZM261.23-30L256.73-30 256.73-35 261.23-35 261.23-30ZM289.52 0.7L289.52 0.7Q287.35 0.7 285.17 0.38 283 0.05 281.15-0.46 279.3-0.98 278.07-1.55L278.07-1.55 278.72-6.6Q280.07-5.95 281.98-5.25 283.9-4.55 286.12-4.08 288.35-3.6 290.62-3.6L290.62-3.6Q294-3.6 295.98-4.84 297.97-6.08 297.97-8.7L297.97-8.7Q297.97-10.68 296.97-11.94 295.97-13.2 293.96-14.1 291.95-15 288.92-15.9L288.92-15.9Q286.05-16.75 283.62-17.91 281.2-19.07 279.73-21.04 278.27-23 278.27-26.25L278.27-26.25Q278.27-29.03 279.71-31.16 281.15-33.3 283.93-34.5 286.72-35.7 290.77-35.7L290.77-35.7Q294.22-35.7 297.11-34.95 300-34.2 301.87-33.3L301.87-33.3 301.37-28.25Q298.52-29.95 295.93-30.68 293.35-31.4 290.57-31.4L290.57-31.4Q287.5-31.4 285.48-30.25 283.47-29.1 283.47-26.5L283.47-26.5Q283.47-24.75 284.37-23.64 285.27-22.53 287.05-21.74 288.82-20.95 291.47-20.15L291.47-20.15Q295.12-19.05 297.75-17.64 300.37-16.23 301.77-14.16 303.17-12.1 303.17-9.05L303.17-9.05Q303.17-6.8 302.32-5 301.47-3.2 299.77-1.93 298.07-0.65 295.51 0.03 292.95 0.7 289.52 0.7ZM318.47 0.5L318.47 0.5Q314.62 0.5 311.91-1.21 309.19-2.93 307.76-5.81 306.32-8.7 306.32-12.25L306.32-12.25Q306.32-15.8 307.76-18.69 309.19-21.58 311.91-23.29 314.62-25 318.47-25L318.47-25Q322.29-25 325.02-23.29 327.74-21.58 329.18-18.69 330.62-15.8 330.62-12.25L330.62-12.25Q330.62-8.7 329.18-5.81 327.74-2.93 325.02-1.21 322.29 0.5 318.47 0.5ZM318.47-3.5L318.47-3.5Q322.12-3.5 324.07-5.81 326.02-8.13 326.02-12.25L326.02-12.25Q326.02-16.38 324.07-18.69 322.12-21 318.47-21L318.47-21Q314.84-21 312.88-18.69 310.92-16.38 310.92-12.25L310.92-12.25Q310.92-8.13 312.88-5.81 314.84-3.5 318.47-3.5ZM343.02 0.5L341.57 0.5Q339.19 0.5 337.8-0.36 336.42-1.23 335.82-2.58 335.22-3.93 335.22-5.4L335.22-5.4 335.22-37.5 339.72-37.5 339.72-8Q339.72-5.9 339.99-4.85 340.27-3.8 341.1-3.45 341.94-3.1 343.67-3.1L343.67-3.1 343.02 0.5ZM355.86 0.5L355.86 0.5Q352.99 0.5 350.96-0.66 348.94-1.83 347.88-4.2 346.81-6.58 346.81-10.25L346.81-10.25 346.81-24.5 351.31-24.5 351.31-11.5Q351.31-7.6 352.65-5.55 353.99-3.5 357.01-3.5L357.01-3.5Q359.09-3.5 360.86-4.5 362.64-5.5 363.31-7.7L363.31-7.7 362.66-5.25 362.66-24.5 367.16-24.5 367.16 0 363.16 0 362.26-4.8 363.46-4Q362.24-1.73 360.48-0.61 358.71 0.5 355.86 0.5ZM385.76 0.5L381.71 0.5Q379.39 0.5 377.99-0.35 376.59-1.2 375.95-2.54 375.31-3.88 375.31-5.35L375.31-5.35 375.31-21 371.11-21 371.51-24.5 375.31-24.5 375.31-30.55 379.81-31 379.81-24.5 386.26-24.5 386.26-21 379.81-21 379.81-8.1Q379.81-5.75 380.09-4.7 380.36-3.65 381.45-3.38 382.54-3.1 384.96-3.1L384.96-3.1 386.11-3.1 385.76 0.5ZM394.61 0L390.11 0 390.11-24.5 394.61-24.5 394.61 0ZM394.61-30L390.11-30 390.11-35 394.61-35 394.61-30ZM411.41 0.5L411.41 0.5Q407.56 0.5 404.84-1.21 402.13-2.93 400.69-5.81 399.26-8.7 399.26-12.25L399.26-12.25Q399.26-15.8 400.69-18.69 402.13-21.58 404.84-23.29 407.56-25 411.41-25L411.41-25Q415.23-25 417.96-23.29 420.68-21.58 422.12-18.69 423.56-15.8 423.56-12.25L423.56-12.25Q423.56-8.7 422.12-5.81 420.68-2.93 417.96-1.21 415.23 0.5 411.41 0.5ZM411.41-3.5L411.41-3.5Q415.06-3.5 417.01-5.81 418.96-8.13 418.96-12.25L418.96-12.25Q418.96-16.38 417.01-18.69 415.06-21 411.41-21L411.41-21Q407.78-21 405.82-18.69 403.86-16.38 403.86-12.25L403.86-12.25Q403.86-8.13 405.82-5.81 407.78-3.5 411.41-3.5ZM432.7 0L428.2 0 428.2-24.5 431.7-24.5 432.6-19.8 430.85-20.55Q433.33-23.3 435.69-24.15 438.05-25 440.3-25L440.3-25Q445.68-25 447.99-21.9 450.3-18.8 450.3-13.5L450.3-13.5 450.3 0 445.8 0 445.8-13.5Q445.8-17.4 444.35-19.2 442.9-21 439.4-21L439.4-21Q436.93-21 434.87-19.91 432.8-18.82 432.15-16.45L432.15-16.45 432.7-19.2 432.7 0ZM463.1 0.5L463.1 0.5Q459.85 0.5 457.71-0.28 455.58-1.05 454.7-1.65L454.7-1.65 455.25-6Q456.05-5.3 458.08-4.4 460.1-3.5 462.9-3.5L462.9-3.5Q465.28-3.5 466.54-4.3 467.8-5.1 467.8-6.55L467.8-6.55Q467.8-7.83 466.99-8.61 466.18-9.4 465.04-9.86 463.9-10.33 462.9-10.6L462.9-10.6Q461.23-11.05 459.44-11.74 457.65-12.43 456.43-13.8 455.2-15.18 455.2-17.65L455.2-17.65Q455.2-19.53 456.1-21.21 457-22.9 459.03-23.95 461.05-25 464.4-25L464.4-25Q466.85-25 468.39-24.49 469.93-23.98 471.05-23.4L471.05-23.4 470.5-19.3Q469.43-20.2 468-20.83 466.58-21.45 464.5-21.45L464.5-21.45Q462.4-21.45 461.08-20.66 459.75-19.88 459.75-18.15L459.75-18.15Q459.75-16.43 461.16-15.7 462.58-14.98 465.45-14.1L465.45-14.1Q466.35-13.85 467.54-13.38 468.73-12.9 469.85-12.1 470.98-11.3 471.71-10.01 472.45-8.72 472.45-6.8L472.45-6.8Q472.45-5.18 471.68-3.49 470.9-1.8 468.88-0.65 466.85 0.5 463.1 0.5Z"
                                                                opacity="1"
                                                                transform="matrix(1,0,0,1,0,0)"
                                                                fill="#ffffff"
                                                                class="wordmark-text-0"
                                                                data-fill-palette-color="primary"
                                                                id="text-0"></path>
                                                        </svg>
                                                    </g>
                                                </svg>
                                            </g>
                                            <g transform="matrix(1,0,0,1,0,39.8627623856222)">
                                                <svg viewBox="0 0 395.52 19.93015571398079"
                                                    height="19.93015571398079" width="395.52">
                                                    <g transform="matrix(1,0,0,1,0,0)">
                                                        <svg width="395.52"
                                                            viewBox="5.7 -37.1 741.2199999999999 37.35"
                                                            height="19.93015571398079"
                                                            data-palette-color="#f7f2ec">
                                                            <path
                                                                d="M27.75-18.05Q31.2-17.3 33.08-15.08 34.95-12.85 34.95-9.35L34.95-9.35Q34.95-4.85 31.63-2.43 28.3 0 21.8 0L21.8 0 5.7 0 5.7-35 20.8-35Q26.65-35 29.88-32.65 33.1-30.3 33.1-26L33.1-26Q33.1-23.1 31.68-21.08 30.25-19.05 27.75-18.05L27.75-18.05ZM20.55-31.95L9.4-31.95 9.4-19.25 20.55-19.25Q24.8-19.25 27.1-20.88 29.4-22.5 29.4-25.6L29.4-25.6Q29.4-28.7 27.1-30.33 24.8-31.95 20.55-31.95L20.55-31.95ZM21.75-3.05Q26.45-3.05 28.85-4.65 31.25-6.25 31.25-9.65L31.25-9.65Q31.25-16.2 21.75-16.2L21.75-16.2 9.4-16.2 9.4-3.05 21.75-3.05ZM66.79 0.25Q62.99 0.25 59.94-1.48 56.89-3.2 55.14-6.25 53.39-9.3 53.39-13.15L53.39-13.15Q53.39-17 55.14-20.05 56.89-23.1 59.94-24.8 62.99-26.5 66.79-26.5L66.79-26.5Q70.59-26.5 73.64-24.8 76.69-23.1 78.42-20.05 80.14-17 80.14-13.15L80.14-13.15Q80.14-9.3 78.42-6.25 76.69-3.2 73.64-1.48 70.59 0.25 66.79 0.25L66.79 0.25ZM66.79-2.9Q69.59-2.9 71.82-4.17 74.04-5.45 75.29-7.8 76.54-10.15 76.54-13.15L76.54-13.15Q76.54-16.15 75.29-18.5 74.04-20.85 71.82-22.13 69.59-23.4 66.79-23.4L66.79-23.4Q63.99-23.4 61.77-22.13 59.54-20.85 58.27-18.5 56.99-16.15 56.99-13.15L56.99-13.15Q56.99-10.15 58.27-7.8 59.54-5.45 61.77-4.17 63.99-2.9 66.79-2.9L66.79-2.9ZM111.54 0.25Q107.74 0.25 104.69-1.48 101.64-3.2 99.89-6.25 98.14-9.3 98.14-13.15L98.14-13.15Q98.14-17 99.89-20.05 101.64-23.1 104.69-24.8 107.74-26.5 111.54-26.5L111.54-26.5Q115.34-26.5 118.39-24.8 121.44-23.1 123.16-20.05 124.89-17 124.89-13.15L124.89-13.15Q124.89-9.3 123.16-6.25 121.44-3.2 118.39-1.48 115.34 0.25 111.54 0.25L111.54 0.25ZM111.54-2.9Q114.34-2.9 116.56-4.17 118.79-5.45 120.04-7.8 121.29-10.15 121.29-13.15L121.29-13.15Q121.29-16.15 120.04-18.5 118.79-20.85 116.56-22.13 114.34-23.4 111.54-23.4L111.54-23.4Q108.74-23.4 106.51-22.13 104.29-20.85 103.01-18.5 101.74-16.15 101.74-13.15L101.74-13.15Q101.74-10.15 103.01-7.8 104.29-5.45 106.51-4.17 108.74-2.9 111.54-2.9L111.54-2.9ZM152.58 0.25Q149.38 0.25 146.45-0.68 143.53-1.6 141.88-3L141.88-3 143.48-5.8Q145.13-4.5 147.63-3.68 150.13-2.85 152.83-2.85L152.83-2.85Q156.43-2.85 158.15-3.98 159.88-5.1 159.88-7.15L159.88-7.15Q159.88-8.6 158.93-9.43 157.98-10.25 156.53-10.68 155.08-11.1 152.68-11.5L152.68-11.5Q149.48-12.1 147.53-12.73 145.58-13.35 144.2-14.85 142.83-16.35 142.83-19L142.83-19Q142.83-22.3 145.58-24.4 148.33-26.5 153.23-26.5L153.23-26.5Q155.78-26.5 158.33-25.83 160.88-25.15 162.53-24.05L162.53-24.05 160.98-21.2Q157.73-23.45 153.23-23.45L153.23-23.45Q149.83-23.45 148.1-22.25 146.38-21.05 146.38-19.1L146.38-19.1Q146.38-17.6 147.35-16.7 148.33-15.8 149.78-15.38 151.23-14.95 153.78-14.5L153.78-14.5Q156.93-13.9 158.83-13.3 160.73-12.7 162.08-11.25 163.43-9.8 163.43-7.25L163.43-7.25Q163.43-3.8 160.55-1.78 157.68 0.25 152.58 0.25L152.58 0.25ZM195.97-4.15L197.22-1.6Q196.22-0.7 194.75-0.23 193.27 0.25 191.67 0.25L191.67 0.25Q187.97 0.25 185.97-1.75 183.97-3.75 183.97-7.4L183.97-7.4 183.97-23.3 179.27-23.3 179.27-26.3 183.97-26.3 183.97-32.05 187.52-32.05 187.52-26.3 195.52-26.3 195.52-23.3 187.52-23.3 187.52-7.6Q187.52-5.25 188.7-4.03 189.87-2.8 192.07-2.8L192.07-2.8Q193.17-2.8 194.2-3.15 195.22-3.5 195.97-4.15L195.97-4.15ZM270.31-35L256.31-12.1 256.31 0 252.66 0 252.66-12.1 238.66-35 242.61-35 254.61-15.35 266.61-35 270.31-35ZM296.45 0.25Q292.65 0.25 289.6-1.48 286.55-3.2 284.8-6.25 283.05-9.3 283.05-13.15L283.05-13.15Q283.05-17 284.8-20.05 286.55-23.1 289.6-24.8 292.65-26.5 296.45-26.5L296.45-26.5Q300.25-26.5 303.3-24.8 306.35-23.1 308.08-20.05 309.8-17 309.8-13.15L309.8-13.15Q309.8-9.3 308.08-6.25 306.35-3.2 303.3-1.48 300.25 0.25 296.45 0.25L296.45 0.25ZM296.45-2.9Q299.25-2.9 301.48-4.17 303.7-5.45 304.95-7.8 306.2-10.15 306.2-13.15L306.2-13.15Q306.2-16.15 304.95-18.5 303.7-20.85 301.48-22.13 299.25-23.4 296.45-23.4L296.45-23.4Q293.65-23.4 291.43-22.13 289.2-20.85 287.93-18.5 286.65-16.15 286.65-13.15L286.65-13.15Q286.65-10.15 287.93-7.8 289.2-5.45 291.43-4.17 293.65-2.9 296.45-2.9L296.45-2.9ZM350.59-26.3L354.14-26.3 354.14 0 350.74 0 350.74-4.8Q349.34-2.4 346.89-1.07 344.44 0.25 341.29 0.25L341.29 0.25Q336.14 0.25 333.17-2.63 330.19-5.5 330.19-11.05L330.19-11.05 330.19-26.3 333.74-26.3 333.74-11.4Q333.74-7.25 335.79-5.1 337.84-2.95 341.64-2.95L341.64-2.95Q345.79-2.95 348.19-5.48 350.59-8 350.59-12.5L350.59-12.5 350.59-26.3ZM380.89-21.15Q382.14-23.8 384.61-25.15 387.09-26.5 390.74-26.5L390.74-26.5 390.74-23.05 389.89-23.1Q385.74-23.1 383.39-20.55 381.04-18 381.04-13.4L381.04-13.4 381.04 0 377.49 0 377.49-26.3 380.89-26.3 380.89-21.15ZM460.22-18.05Q463.67-17.3 465.55-15.08 467.42-12.85 467.42-9.35L467.42-9.35Q467.42-4.85 464.1-2.43 460.77 0 454.27 0L454.27 0 438.17 0 438.17-35 453.27-35Q459.12-35 462.35-32.65 465.57-30.3 465.57-26L465.57-26Q465.57-23.1 464.15-21.08 462.72-19.05 460.22-18.05L460.22-18.05ZM453.02-31.95L441.87-31.95 441.87-19.25 453.02-19.25Q457.27-19.25 459.57-20.88 461.87-22.5 461.87-25.6L461.87-25.6Q461.87-28.7 459.57-30.33 457.27-31.95 453.02-31.95L453.02-31.95ZM454.22-3.05Q458.92-3.05 461.32-4.65 463.72-6.25 463.72-9.65L463.72-9.65Q463.72-16.2 454.22-16.2L454.22-16.2 441.87-16.2 441.87-3.05 454.22-3.05ZM508.66-26.3L512.21-26.3 512.21 0 508.81 0 508.81-4.8Q507.41-2.4 504.96-1.07 502.51 0.25 499.36 0.25L499.36 0.25Q494.21 0.25 491.24-2.63 488.26-5.5 488.26-11.05L488.26-11.05 488.26-26.3 491.81-26.3 491.81-11.4Q491.81-7.25 493.86-5.1 495.91-2.95 499.71-2.95L499.71-2.95Q503.86-2.95 506.26-5.48 508.66-8 508.66-12.5L508.66-12.5 508.66-26.3ZM542.61 0.25Q539.41 0.25 536.48-0.68 533.56-1.6 531.91-3L531.91-3 533.51-5.8Q535.16-4.5 537.66-3.68 540.16-2.85 542.86-2.85L542.86-2.85Q546.46-2.85 548.18-3.98 549.91-5.1 549.91-7.15L549.91-7.15Q549.91-8.6 548.96-9.43 548.01-10.25 546.56-10.68 545.11-11.1 542.71-11.5L542.71-11.5Q539.51-12.1 537.56-12.73 535.61-13.35 534.23-14.85 532.86-16.35 532.86-19L532.86-19Q532.86-22.3 535.61-24.4 538.36-26.5 543.26-26.5L543.26-26.5Q545.81-26.5 548.36-25.83 550.91-25.15 552.56-24.05L552.56-24.05 551.01-21.2Q547.76-23.45 543.26-23.45L543.26-23.45Q539.86-23.45 538.13-22.25 536.41-21.05 536.41-19.1L536.41-19.1Q536.41-17.6 537.38-16.7 538.36-15.8 539.81-15.38 541.26-14.95 543.81-14.5L543.81-14.5Q546.96-13.9 548.86-13.3 550.76-12.7 552.11-11.25 553.46-9.8 553.46-7.25L553.46-7.25Q553.46-3.8 550.58-1.78 547.71 0.25 542.61 0.25L542.61 0.25ZM573.4 0L573.4-26.3 576.95-26.3 576.95 0 573.4 0ZM575.2-32.05Q574.1-32.05 573.35-32.8 572.6-33.55 572.6-34.6L572.6-34.6Q572.6-35.6 573.35-36.35 574.1-37.1 575.2-37.1L575.2-37.1Q576.3-37.1 577.05-36.38 577.8-35.65 577.8-34.65L577.8-34.65Q577.8-33.55 577.05-32.8 576.3-32.05 575.2-32.05L575.2-32.05ZM613.64-26.5Q618.59-26.5 621.52-23.63 624.44-20.75 624.44-15.25L624.44-15.25 624.44 0 620.89 0 620.89-14.9Q620.89-19 618.84-21.15 616.79-23.3 612.99-23.3L612.99-23.3Q608.74-23.3 606.27-20.78 603.79-18.25 603.79-13.8L603.79-13.8 603.79 0 600.24 0 600.24-26.3 603.64-26.3 603.64-21.45Q605.09-23.85 607.67-25.18 610.24-26.5 613.64-26.5L613.64-26.5ZM670.54-13.15L670.49-12.05 648.49-12.05Q648.79-7.95 651.64-5.43 654.49-2.9 658.84-2.9L658.84-2.9Q661.29-2.9 663.34-3.78 665.39-4.65 666.89-6.35L666.89-6.35 668.89-4.05Q667.14-1.95 664.51-0.85 661.89 0.25 658.74 0.25L658.74 0.25Q654.69 0.25 651.56-1.48 648.44-3.2 646.69-6.25 644.94-9.3 644.94-13.15L644.94-13.15Q644.94-17 646.61-20.05 648.29-23.1 651.21-24.8 654.14-26.5 657.79-26.5L657.79-26.5Q661.44-26.5 664.34-24.8 667.24-23.1 668.89-20.08 670.54-17.05 670.54-13.15L670.54-13.15ZM657.79-23.45Q653.99-23.45 651.41-21.03 648.84-18.6 648.49-14.7L648.49-14.7 667.14-14.7Q666.79-18.6 664.21-21.03 661.64-23.45 657.79-23.45L657.79-23.45ZM698.23 0.25Q695.03 0.25 692.1-0.68 689.18-1.6 687.53-3L687.53-3 689.13-5.8Q690.78-4.5 693.28-3.68 695.78-2.85 698.48-2.85L698.48-2.85Q702.08-2.85 703.8-3.98 705.53-5.1 705.53-7.15L705.53-7.15Q705.53-8.6 704.58-9.43 703.63-10.25 702.18-10.68 700.73-11.1 698.33-11.5L698.33-11.5Q695.13-12.1 693.18-12.73 691.23-13.35 689.85-14.85 688.48-16.35 688.48-19L688.48-19Q688.48-22.3 691.23-24.4 693.98-26.5 698.88-26.5L698.88-26.5Q701.43-26.5 703.98-25.83 706.53-25.15 708.18-24.05L708.18-24.05 706.63-21.2Q703.38-23.45 698.88-23.45L698.88-23.45Q695.48-23.45 693.75-22.25 692.03-21.05 692.03-19.1L692.03-19.1Q692.03-17.6 693-16.7 693.98-15.8 695.43-15.38 696.88-14.95 699.43-14.5L699.43-14.5Q702.58-13.9 704.48-13.3 706.38-12.7 707.73-11.25 709.08-9.8 709.08-7.25L709.08-7.25Q709.08-3.8 706.2-1.78 703.33 0.25 698.23 0.25L698.23 0.25ZM736.07 0.25Q732.87 0.25 729.95-0.68 727.02-1.6 725.37-3L725.37-3 726.97-5.8Q728.62-4.5 731.12-3.68 733.62-2.85 736.32-2.85L736.32-2.85Q739.92-2.85 741.65-3.98 743.37-5.1 743.37-7.15L743.37-7.15Q743.37-8.6 742.42-9.43 741.47-10.25 740.02-10.68 738.57-11.1 736.17-11.5L736.17-11.5Q732.97-12.1 731.02-12.73 729.07-13.35 727.7-14.85 726.32-16.35 726.32-19L726.32-19Q726.32-22.3 729.07-24.4 731.82-26.5 736.72-26.5L736.72-26.5Q739.27-26.5 741.82-25.83 744.37-25.15 746.02-24.05L746.02-24.05 744.47-21.2Q741.22-23.45 736.72-23.45L736.72-23.45Q733.32-23.45 731.6-22.25 729.87-21.05 729.87-19.1L729.87-19.1Q729.87-17.6 730.85-16.7 731.82-15.8 733.27-15.38 734.72-14.95 737.27-14.5L737.27-14.5Q740.42-13.9 742.32-13.3 744.22-12.7 745.57-11.25 746.92-9.8 746.92-7.25L746.92-7.25Q746.92-3.8 744.05-1.78 741.17 0.25 736.07 0.25L736.07 0.25Z"
                                                                opacity="1"
                                                                transform="matrix(1,0,0,1,0,0)"
                                                                fill="#ffffff" class="slogan-text-1"
                                                                data-fill-palette-color="secondary"
                                                                id="text-1"></path>
                                                        </svg>
                                                    </g>
                                                </svg>
                                            </g>
                                        </svg>
                                    </g>
                                </svg>
                            </g>
                            <g transform="matrix(1,0,0,1,128.43494505880233,0)">
                                <svg viewBox="0 0 138.65010988239533 82.63381281365133"
                                    height="82.63381281365133" width="138.65010988239533">
                                    <g>
                                        <svg xmlns="http://www.w3.org/2000/svg"
                                            xmlns:xlink="http://www.w3.org/1999/xlink" version="1.0"
                                            x="0" y="0"
                                            viewBox="1.0269562977782698e-15 20.2 100.00200000000001 59.599999999999994"
                                            enable-background="new 0 0 100 100" xml:space="preserve"
                                            width="138.65010988239533" height="82.63381281365133"
                                            class="icon-icon-0" data-fill-palette-color="accent"
                                            id="icon-0"><g fill="#c6c1ea" data-fill-palette-color="accent"><path fill="#ffffff" d="M73.959 79.8c-13.607 0-24.956-11.188-25.432-11.664-0.102-0.104-10.624-10.449-22.485-10.449-11.902 0-22.378 10.344-22.486 10.449-0.812 0.812-2.13 0.812-2.944 0-0.816-0.814-0.816-2.132 0-2.948 0.476-0.476 11.825-11.67 25.43-11.67 13.607 0 24.955 11.194 25.432 11.67 0.102 0.104 10.624 10.447 22.486 10.447 11.859 0 22.382-10.344 22.488-10.447 0.816-0.812 2.134-0.812 2.942 0.006 0.816 0.812 0.816 2.128 0 2.942C98.912 68.612 87.563 79.8 73.959 79.8z" data-fill-palette-color="accent"></path><path fill="#ffffff" d="M73.959 63.147c-13.607 0-24.956-11.194-25.432-11.67-0.102-0.102-10.624-10.445-22.485-10.445-11.902 0-22.378 10.343-22.486 10.445-0.812 0.814-2.13 0.814-2.944 0-0.816-0.816-0.816-2.132 0-2.944 0.476-0.476 11.825-11.668 25.43-11.668 13.607 0 24.955 11.192 25.432 11.668 0.102 0.1 10.624 10.447 22.486 10.447 11.859 0 22.382-10.348 22.488-10.447 0.816-0.812 2.134-0.812 2.942 0.002 0.816 0.816 0.816 2.126 0 2.942C98.912 51.953 87.563 63.147 73.959 63.147z" data-fill-palette-color="accent"></path><path fill="#ffffff" d="M73.959 46.482c-13.607 0-24.956-11.194-25.432-11.67-0.102-0.104-10.624-10.447-22.485-10.447-11.902 0-22.378 10.343-22.486 10.447-0.812 0.812-2.13 0.812-2.944 0-0.816-0.816-0.816-2.134 0-2.948C1.088 31.388 12.437 20.2 26.042 20.2c13.607 0 24.955 11.188 25.432 11.664 0.102 0.104 10.624 10.449 22.486 10.449 11.859 0 22.382-10.346 22.488-10.449 0.816-0.812 2.134-0.81 2.942 0.006 0.816 0.812 0.816 2.126 0 2.942C98.912 35.288 87.563 46.482 73.959 46.482z" data-fill-palette-color="accent"></path></g></svg>
                                    </g>
                                </svg>
                            </g>
                            <g></g>
                        </svg>
                    </g>
                    <defs></defs>
                </svg>
                <rect width="395.52" height="150.04005039599497" fill="none" stroke="none"
                    visibility="hidden"></rect>
            </g>
        </svg>
    </g>
</svg>